<svg xmlns="http://www.w3.org/2000/svg" viewBox="0 0 185.673 185.673"><path fill="#fff" stroke="#333" stroke-linecap="round" stroke-linejoin="round" stroke-width="7.327" d="M3.664 3.663H182.01v178.346H3.664z" style="stroke:#4d4d4d;stroke-opacity:1"/><g style="line-height:64.19999599%;-inkscape-font-specification:'Inconsolata Medium';stroke:none;stroke-opacity:1;fill:#4d4d4d;fill-opacity:1" fill="#333" stroke-width="1.146" aria-label="··········THEOLOGIQUE.CH···········" font-family="Roboto Mono" font-size="28.571" font-weight="700" letter-spacing="2.646" word-spacing="2.646"><path style="line-height:64.19999599%;-inkscape-font-specification:'Roboto Mono Bold';stroke:none;stroke-opacity:1;fill:#4d4d4d;fill-opacity:1" d="M31.307 32.54q0 .88.586 1.48.6.6 1.618.6.99 0 1.59-.587.614-.586.614-1.493 0-.906-.614-1.492-.6-.6-1.59-.6-1.018 0-1.618.614-.586.6-.586 1.478zm19.791 0q0 .88.586 1.48.6.6 1.618.6.99 0 1.59-.587.615-.586.615-1.493 0-.906-.614-1.492-.6-.6-1.59-.6-1.02 0-1.619.614-.586.6-.586 1.478zm19.792 0q0 .88.585 1.48.6.6 1.619.6.99 0 1.59-.587.614-.586.614-1.493 0-.906-.614-1.492-.6-.6-1.59-.6-1.019 0-1.619.614-.586.6-.586 1.478zm19.79 0q0 .88.587 1.48.6.6 1.618.6.99 0 1.59-.587.614-.586.614-1.493 0-.906-.614-1.492-.6-.6-1.59-.6-1.018 0-1.618.614-.586.6-.586 1.478zm19.792 0q0 .88.586 1.48.6.6 1.618.6.99 0 1.59-.587.615-.586.615-1.493 0-.906-.614-1.492-.6-.6-1.59-.6-1.019 0-1.619.614-.586.6-.586 1.478zm19.792 0q0 .88.585 1.48.6.6 1.619.6.99 0 1.59-.587.614-.586.614-1.493 0-.906-.614-1.492-.6-.6-1.59-.6-1.019 0-1.619.614-.585.6-.585 1.478zm19.791 0q0 .88.586 1.48.6.6 1.618.6.99 0 1.59-.587.614-.586.614-1.493 0-.906-.614-1.492-.6-.6-1.59-.6-1.018 0-1.618.614-.586.6-.586 1.478zM31.307 62.691q0 .88.586 1.48.6.6 1.618.6.99 0 1.59-.587.614-.586.614-1.493 0-.906-.614-1.492-.6-.6-1.59-.6-1.018 0-1.618.614-.586.6-.586 1.478zm19.791 0q0 .88.586 1.48.6.6 1.618.6.99 0 1.59-.587.615-.586.615-1.493 0-.906-.614-1.492-.6-.6-1.59-.6-1.02 0-1.619.614-.586.6-.586 1.478zm19.792 0q0 .88.585 1.48.6.6 1.619.6.99 0 1.59-.587.614-.586.614-1.493 0-.906-.614-1.492-.6-.6-1.59-.6-1.019 0-1.619.614-.586.6-.586 1.478zm29.654-7.338V52.16H84.166v3.194h6.18v17.118h3.934V55.353zm18.271 17.118V52.159h-3.879v8.328h-5.747V52.16h-3.893v20.31h3.893v-8.803h5.747v8.803zM137.7 63.57v-3.097h-8.343v-5.12h9.71V52.16h-13.644v20.31h13.685v-3.167h-9.751V63.57zm21.465.238V60.85q0-1.381-.265-2.609-.251-1.227-.74-2.26-.446-.907-1.074-1.66-.614-.753-1.437-1.283-.823-.558-1.855-.851-1.019-.307-2.19-.307-1.158 0-2.149.293-.99.293-1.786.837-.809.558-1.437 1.339-.613.781-1.046 1.744-.446 1.018-.684 2.218-.223 1.2-.223 2.539v2.958q0 1.255.196 2.385.209 1.13.6 2.093.432 1.046 1.074 1.883.641.823 1.45 1.41.824.557 1.828.864 1.005.307 2.19.307 1.116 0 2.079-.279.977-.265 1.786-.753.893-.558 1.59-1.395.698-.837 1.172-1.842.446-1.004.684-2.176.237-1.186.237-2.497zm-3.976-2.986v2.986q0 .753-.084 1.45-.07.698-.223 1.284-.195.753-.53 1.353-.321.586-.795.977-.377.32-.865.488-.489.167-1.075.167-.613 0-1.102-.181-.474-.181-.85-.516-.405-.377-.712-.977-.293-.614-.447-1.353-.14-.586-.195-1.27-.056-.683-.056-1.422v-2.986q0-.781.056-1.493.07-.711.21-1.311.18-.781.502-1.367.334-.586.809-.977.348-.265.78-.404.447-.14.991-.14.572 0 1.033.154.474.153.85.432.475.377.824.977.349.586.558 1.339.167.6.237 1.311.084.698.084 1.48zM30.442 99.455V82.31h-3.934v20.312h13.448v-3.167zm29.766-5.496V91q0-1.381-.265-2.609-.251-1.227-.74-2.26-.446-.907-1.074-1.66-.614-.753-1.437-1.283-.823-.558-1.855-.851-1.019-.307-2.19-.307-1.158 0-2.149.293-.99.293-1.786.837-.809.558-1.436 1.339-.614.781-1.047 1.744-.446 1.018-.683 2.218-.224 1.2-.224 2.539v2.958q0 1.255.196 2.385.209 1.13.6 2.093.432 1.046 1.074 1.883.642.823 1.45 1.41.824.557 1.828.864 1.005.307 2.19.307 1.117 0 2.08-.279.976-.265 1.785-.753.893-.558 1.59-1.395.698-.837 1.172-1.842.447-1.004.684-2.176.237-1.186.237-2.497zm-3.976-2.986v2.986q0 .753-.084 1.45-.07.698-.223 1.284-.195.753-.53 1.353-.321.586-.795.977-.377.32-.865.488-.489.167-1.074.167-.614 0-1.103-.181-.474-.181-.85-.516-.405-.377-.712-.977-.293-.614-.446-1.353-.14-.586-.196-1.27-.056-.683-.056-1.422v-2.986q0-.781.056-1.493.07-.711.21-1.311.18-.781.502-1.367.335-.586.809-.977.349-.265.781-.404.447-.14.99-.14.573 0 1.033.154.474.153.851.432.474.377.823.977.349.586.558 1.339.168.6.237 1.311.084.698.084 1.48zm23.558 9.277-.014-8.007h-7.268v2.93h3.362l-.014 3.682q-.154.182-.46.35-.293.153-.684.278-.39.126-.837.195-.447.07-.907.07-.753-.014-1.353-.237-.586-.237-1.032-.684-.266-.265-.489-.6-.209-.348-.376-.753-.266-.697-.419-1.604-.14-.907-.14-2.01v-2.79q0-.878.098-1.632.112-.753.307-1.367.251-.795.628-1.38.39-.587.865-.95.363-.265.781-.404.419-.14.865-.14.823 0 1.41.224.599.209.99.641.348.391.544.963.209.572.307 1.311h3.822q-.153-1.465-.656-2.636-.488-1.172-1.367-1.995-.879-.81-2.162-1.242-1.27-.432-2.986-.432-1.116 0-2.12.306-1.005.307-1.856.907-.725.53-1.339 1.256-.6.725-1.06 1.632-.488 1.019-.753 2.274-.266 1.242-.266 2.693v2.762q0 1.52.266 2.818.279 1.297.809 2.33.46.934 1.116 1.66.67.725 1.479 1.228.823.488 1.8.739.99.265 2.106.265 1.283 0 2.4-.237 1.115-.237 2.022-.628.893-.377 1.549-.851.655-.474 1.032-.935zm6.692-17.94v3.166h3.864V99.47h-3.864v3.153h11.746V99.47h-3.962V85.476h3.962V82.31zm33.226 12.262v-3.515q0-1.074-.154-2.051-.153-.99-.46-1.855-.419-1.228-1.144-2.219-.726-.99-1.688-1.674-.851-.586-1.898-.906-1.046-.321-2.246-.321t-2.218.32q-1.018.321-1.841.907-.907.642-1.563 1.563-.656.907-1.046 2.037-.335.906-.516 1.98-.168 1.06-.168 2.219v3.515q0 1.005.182 1.967.181.95.53 1.8.39.977 1.018 1.828.642.85 1.493 1.465.837.6 1.87.934 1.032.335 2.26.335.543 0 1.046-.07.516-.07 1.004-.195l3.864 3.571 2.526-2.246-3.363-3.04q.545-.517.963-1.131.433-.628.74-1.311.39-.88.585-1.87.21-.99.224-2.037zm-3.976-3.543v3.543q0 .558-.07 1.116-.07.545-.21 1.06-.195.684-.543 1.284-.335.6-.824 1.005-.39.293-.878.474-.489.167-1.089.167-.586 0-1.06-.167-.46-.167-.81-.474-.487-.405-.808-1.019-.321-.614-.488-1.367-.112-.488-.168-1.018-.042-.53-.042-1.06v-3.544q0-.628.042-1.2.042-.586.126-1.102.14-.893.446-1.604.321-.726.851-1.186.363-.321.837-.488.474-.168 1.074-.168.628 0 1.13.182.517.18.907.502.405.376.726.92.32.53.488 1.186.195.628.279 1.381.084.754.084 1.577zm23-8.719h-3.893l-.014 13.462q-.014.99-.209 1.744-.195.753-.586 1.256-.362.488-.92.739-.545.237-1.256.237-.656 0-1.158-.223-.502-.237-.851-.698-.377-.502-.572-1.27-.181-.766-.195-1.785l-.014-13.462h-3.92l-.014 13.462q0 1.702.474 3.041.488 1.326 1.367 2.233.879.906 2.107 1.38 1.241.475 2.776.475 1.632 0 2.902-.474 1.283-.475 2.176-1.395.879-.907 1.34-2.233.474-1.325.474-3.027zm18.758 11.411v-3.097h-8.342v-5.12h9.71V82.31h-13.644v20.312H158.9v-3.167h-9.752v-5.734zM30.302 130.527q0 1.074.726 1.8.725.725 1.967.725 1.227 0 1.953-.711.74-.726.74-1.814t-.726-1.828q-.712-.739-1.967-.739-1.27 0-1.981.753-.712.74-.712 1.814zm29.836-4.116h-3.92q-.056.921-.307 1.577-.251.656-.684 1.074-.432.419-1.046.614-.614.195-1.38.195-.573 0-1.047-.125-.46-.14-.837-.419-.35-.251-.628-.628-.265-.376-.46-.865-.28-.711-.419-1.66-.126-.962-.126-2.176v-2.762q0-.893.084-1.66.084-.782.265-1.423.237-.824.628-1.437.405-.628.977-.963.334-.195.725-.293.405-.098.865-.098.865 0 1.479.238.628.223 1.046.67.405.46.614 1.143.223.684.279 1.59h3.906q-.14-1.59-.67-2.86-.53-1.269-1.45-2.148-.921-.879-2.233-1.353-1.297-.474-2.971-.474-1.13 0-2.12.293-.977.279-1.8.809-.921.628-1.646 1.534-.726.907-1.172 2.065-.39.949-.586 2.065-.196 1.102-.196 2.33v2.734q0 1.311.21 2.483.223 1.172.628 2.149.418.976 1.018 1.785.614.81 1.395 1.381.851.614 1.911.95 1.074.32 2.33.32 1.59 0 2.902-.46 1.311-.475 2.26-1.34.949-.865 1.507-2.092.572-1.228.67-2.763zm19.094 6.362v-20.312h-3.878v8.328h-5.748v-8.328h-3.892v20.312h3.892v-8.803h5.748v8.803zm11.448-9.779q0 .878.587 1.478.6.6 1.618.6.99 0 1.59-.586.614-.586.614-1.492 0-.907-.614-1.493-.6-.6-1.59-.6-1.018 0-1.618.614-.586.6-.586 1.479zm19.792 0q0 .878.586 1.478.6.6 1.618.6.99 0 1.59-.586.615-.586.615-1.492 0-.907-.614-1.493-.6-.6-1.59-.6-1.019 0-1.619.614-.586.6-.586 1.479zm19.792 0q0 .878.585 1.478.6.6 1.619.6.99 0 1.59-.586.614-.586.614-1.492 0-.907-.614-1.493-.6-.6-1.59-.6-1.019 0-1.619.614-.585.6-.585 1.479zm19.791 0q0 .878.586 1.478.6.6 1.618.6.99 0 1.59-.586.614-.586.614-1.492 0-.907-.614-1.493-.6-.6-1.59-.6-1.018 0-1.618.614-.586.6-.586 1.479zM31.307 153.145q0 .878.586 1.478.6.6 1.618.6.99 0 1.59-.586.614-.586.614-1.492 0-.907-.614-1.493-.6-.6-1.59-.6-1.018 0-1.618.614-.586.6-.586 1.479zm19.791 0q0 .878.586 1.478.6.6 1.618.6.99 0 1.59-.586.615-.586.615-1.492 0-.907-.614-1.493-.6-.6-1.59-.6-1.02 0-1.619.614-.586.6-.586 1.479zm19.792 0q0 .878.585 1.478.6.6 1.619.6.99 0 1.59-.586.614-.586.614-1.492 0-.907-.614-1.493-.6-.6-1.59-.6-1.019 0-1.619.614-.586.6-.586 1.479zm19.79 0q0 .878.587 1.478.6.6 1.618.6.99 0 1.59-.586.614-.586.614-1.492 0-.907-.614-1.493-.6-.6-1.59-.6-1.018 0-1.618.614-.586.6-.586 1.479zm19.792 0q0 .878.586 1.478.6.6 1.618.6.99 0 1.59-.586.615-.586.615-1.492 0-.907-.614-1.493-.6-.6-1.59-.6-1.019 0-1.619.614-.586.6-.586 1.479zm19.792 0q0 .878.585 1.478.6.6 1.619.6.99 0 1.59-.586.614-.586.614-1.492 0-.907-.614-1.493-.6-.6-1.59-.6-1.019 0-1.619.614-.585.6-.585 1.479zm19.791 0q0 .878.586 1.478.6.6 1.618.6.99 0 1.59-.586.614-.586.614-1.492 0-.907-.614-1.493-.6-.6-1.59-.6-1.018 0-1.618.614-.586.6-.586 1.479z"/></g></svg>